<?xml version="1.0" standalone="no"?>
<!DOCTYPE svg PUBLIC "-//W3C//DTD SVG 20010904//EN"
 "http://www.w3.org/TR/2001/REC-SVG-20010904/DTD/svg10.dtd">
<svg version="1.0" xmlns="http://www.w3.org/2000/svg"
 width="307.000000pt" height="307.000000pt" viewBox="0 0 307.000000 307.000000"
 preserveAspectRatio="xMidYMid meet">
<metadata>
Created by potrace 1.11, written by Peter Selinger 2001-2013
</metadata>
<g transform="translate(0.000000,307.000000) scale(0.100000,-0.100000)"
fill="#000000" stroke="none">
<path d="M1674 2902 c-6 -4 -46 -69 -88 -144 -43 -76 -83 -138 -90 -139 -6 -1
-37 -2 -69 -3 -70 -3 -63 -9 -196 175 -34 48 -70 89 -80 92 -10 2 -32 -2 -50
-9 -17 -7 -32 -13 -34 -13 -1 0 -9 -2 -17 -5 -8 -2 -40 -12 -70 -21 -30 -9
-74 -24 -98 -33 l-44 -15 6 -96 c4 -53 9 -122 12 -153 3 -31 3 -66 -1 -77 -3
-11 -33 -37 -66 -57 l-60 -36 -147 58 c-81 31 -156 58 -167 59 -21 2 -45 -20
-111 -101 -21 -27 -47 -58 -58 -69 -10 -11 -25 -30 -33 -42 -19 -28 -15 -34
100 -176 43 -54 80 -106 82 -115 1 -9 -4 -29 -12 -44 l-14 -28 180 0 179 0 18
28 c27 42 134 150 185 187 97 72 246 141 344 159 17 3 46 8 65 12 117 21 307
5 430 -36 267 -88 473 -288 561 -542 34 -101 41 -144 42 -263 1 -169 -33 -291
-119 -434 l-34 -56 0 -360 c0 -349 1 -361 20 -378 11 -9 28 -17 37 -17 19 0
243 159 250 177 3 7 -20 76 -51 154 -31 78 -56 149 -56 159 0 17 71 118 92
131 12 7 56 6 163 -6 115 -13 187 -11 195 5 26 51 100 248 100 266 0 14 -27
35 -179 143 -49 35 -92 70 -95 77 -8 21 3 126 15 141 6 7 18 13 25 13 8 0 14
3 14 8 0 4 30 20 68 37 37 16 94 43 127 60 57 29 60 32 58 65 -1 19 -8 64 -17
100 -8 36 -21 89 -27 118 -7 29 -18 57 -25 63 -7 6 -53 13 -101 15 -252 12
-251 12 -287 83 -29 56 -33 43 74 215 38 62 70 117 70 123 0 13 -205 215 -229
227 -15 6 -43 -4 -113 -42 -168 -91 -191 -102 -206 -102 -23 0 -110 53 -115
70 -2 9 -5 54 -7 100 -5 189 -8 214 -24 226 -14 9 -81 27 -156 41 -8 1 -42 9
-75 17 -68 18 -76 18 -91 8z"/>
<path d="M1990 995 l0 -855 80 0 80 0 -2 853 -3 852 -77 3 -78 3 0 -856z"/>
<path d="M302 1827 c-12 -7 -30 -24 -40 -37 -16 -23 -17 -80 -20 -750 -2 -399
0 -749 3 -778 5 -39 15 -62 35 -85 l28 -32 275 0 c367 0 347 -19 347 325 l0
220 -80 0 -80 0 0 -210 0 -210 -185 0 -185 0 0 720 0 720 185 0 185 0 0 -190
0 -190 80 0 80 0 0 205 c0 224 -6 257 -53 288 -23 15 -58 17 -289 17 -192 -1
-269 -4 -286 -13z"/>
<path d="M1190 990 l0 -850 280 0 280 0 0 65 0 65 -205 0 -205 0 0 335 0 335
185 0 185 0 0 65 0 65 -185 0 -185 0 0 320 0 320 200 0 200 0 0 65 0 65 -275
0 -275 0 0 -850z"/>
</g>
</svg>
